<svg data-v-fde0c5aa="" xmlns="http://www.w3.org/2000/svg" viewBox="0 0 300 300" class="iconLeft"><!----><defs data-v-fde0c5aa=""><!----></defs><rect data-v-fde0c5aa="" fill="transparent" x="0" y="0" width="300px" height="300px" class="logo-background-square"></rect><defs data-v-fde0c5aa=""><!----></defs><g data-v-fde0c5aa="" id="8f374a5b-bcec-4166-a25a-df8e64c864f9" fill="#000000" transform="matrix(2.844573074224202,0,0,2.844573074224202,98.0300083127071,121.5116010414361)"><path d="M2.66 7.48L2.69 7.48L7.76 14.88L9.03 14.88L9.03 5.08L7.63 5.08L7.63 12.49L7.60 12.49L2.53 5.08L1.26 5.08L1.26 14.88L2.66 14.88ZM12.95 10.47L16.44 10.47L16.44 9.21L12.95 9.21L12.95 6.34L17.28 6.34L17.28 5.08L11.55 5.08L11.55 14.88L12.95 14.88ZM22.30 6.34L25.09 6.34L25.09 5.08L18.12 5.08L18.12 6.34L20.90 6.34L20.90 14.88L22.30 14.88ZM31.81 10.47L36.50 10.47L36.50 14.88L37.90 14.88L37.90 5.08L36.50 5.08L36.50 9.21L31.81 9.21L31.81 5.08L30.41 5.08L30.41 14.88L31.81 14.88ZM46.37 5.08L46.37 13.55L41.82 13.55L41.82 5.08L40.42 5.08L40.42 14.01L42.04 14.95L46.14 14.95L47.77 14.01L47.77 5.08ZM56.94 9.10L56.94 6.02L55.31 5.08L50.29 5.08L50.29 14.88L55.31 14.88L56.94 13.94L56.94 10.53L55.72 9.83L55.72 9.80ZM51.69 10.44L55.54 10.44L55.54 13.62L51.69 13.62ZM51.69 6.34L55.54 6.34L55.54 9.18L51.69 9.18Z"></path></g><defs data-v-fde0c5aa=""><linearGradient data-v-fde0c5aa="" gradientTransform="rotate(25)" id="c440cf11-e6f1-481c-803e-11e8a86cfaf5" x1="0%" y1="0%" x2="100%" y2="0%"><stop data-v-fde0c5aa="" offset="0%" stop-color="#6566CE" stop-opacity="1"></stop><stop data-v-fde0c5aa="" offset="100%" stop-color="#DBC1D0" stop-opacity="1"></stop></linearGradient></defs><g data-v-fde0c5aa="" id="54818d2e-b4ec-4781-8b06-a7d74818632a" stroke="none" fill="url(#c440cf11-e6f1-481c-803e-11e8a86cfaf5)" transform="matrix(0.501177014011357,0,0,0.501177014011357,39.248234478982965,124.9416509180809)"><path d="M1.5 63.883v21.733l16.462 6.398 16.463-6.398V63.883l-16.463-6.398L1.5 63.883zm3 4.406l11.962 4.65v15.275L4.5 83.564V68.289zm26.925 15.275l-11.963 4.65V72.939l11.963-4.65v15.275zM18.01 70.285h-.096L5.611 65.504l12.351-4.801 12.351 4.801-12.303 4.781zM82.037 57.484l-16.462 6.398v21.733l16.462 6.398L98.5 85.617V63.883l-16.463-6.399zM68.575 68.289l11.962 4.65v15.275l-11.962-4.65V68.289zM95.5 83.564l-11.963 4.65V72.939l11.963-4.65v15.275zM82.085 70.285h-.096l-12.303-4.781 12.351-4.801 12.351 4.801-12.303 4.781zM67.425 36.118V14.384l-16.463-6.4L34.5 14.382V36.116l16.462 6.398 16.463-6.396zm-3-2.053l-11.963 4.649V23.439l11.963-4.649v15.275zM50.962 11.203l12.351 4.801-12.303 4.781h-.096l-12.303-4.781 12.351-4.801zM37.5 18.79l11.962 4.649v15.275L37.5 34.065V18.79zM38.483 73.094h3v3h-3zM56.482 73.094h3v3h-3zM50.483 73.094h2.999v3h-2.999zM44.483 73.094h3v3h-3zM30.061 54.911l2.121 2.122-2.12 2.121-2.122-2.121zM40.666 44.305l2.121-2.121 2.122 2.121-2.122 2.121zM38.546 46.426l2.12 2.121-2.12 2.122-2.122-2.122zM34.302 54.913l-2.12-2.122 2.12-2.12 2.122 2.12zM75.561 57.034l-2.12 2.12-2.122-2.12 2.121-2.122zM62.832 48.548l2.122-2.121 2.121 2.121-2.121 2.121zM71.32 52.79l-2.122 2.122-2.121-2.122 2.121-2.121zM58.59 44.305l2.121-2.121 2.121 2.121-2.12 2.121z"></path></g><!----></svg>