<svg data-v-423bf9ae="" xmlns="http://www.w3.org/2000/svg" viewBox="0 0 338.48024894088525 60" class="font"><!----><!----><!----><g data-v-423bf9ae="" id="2767078d-358e-4895-bbd1-66351712c655" fill="black" transform="matrix(6.079027426108357,0,0,6.079027426108357,-7.6595773663529485,-30.881458384000304)"><path d="M2.66 7.48L2.69 7.48L7.76 14.88L9.03 14.88L9.03 5.08L7.63 5.08L7.63 12.49L7.60 12.49L2.53 5.08L1.26 5.08L1.26 14.88L2.66 14.88ZM12.95 10.47L16.44 10.47L16.44 9.21L12.95 9.21L12.95 6.34L17.28 6.34L17.28 5.08L11.55 5.08L11.55 14.88L12.95 14.88ZM22.30 6.34L25.09 6.34L25.09 5.08L18.12 5.08L18.12 6.34L20.90 6.34L20.90 14.88L22.30 14.88ZM31.81 10.47L36.50 10.47L36.50 14.88L37.90 14.88L37.90 5.08L36.50 5.08L36.50 9.21L31.81 9.21L31.81 5.08L30.41 5.08L30.41 14.88L31.81 14.88ZM46.37 5.08L46.37 13.55L41.82 13.55L41.82 5.08L40.42 5.08L40.42 14.01L42.04 14.95L46.14 14.95L47.77 14.01L47.77 5.08ZM56.94 9.10L56.94 6.02L55.31 5.08L50.29 5.08L50.29 14.88L55.31 14.88L56.94 13.94L56.94 10.53L55.72 9.83L55.72 9.80ZM51.69 10.44L55.54 10.44L55.54 13.62L51.69 13.62ZM51.69 6.34L55.54 6.34L55.54 9.18L51.69 9.18Z"></path></g><!----><!----></svg>